<svg id="Capa_1" enable-background="new 0 0 496.997 496.997" height="512" viewBox="0 0 496.997 496.997" width="512" xmlns="http://www.w3.org/2000/svg"><g><path d="m101.058 49.037-3.49 12.63-3.51 12.73h-87.7c-5.73 0-8.52-6.98-4.38-10.93l38.88-37.08c6.13-5.84 14.27-9.1 22.74-9.1h23.94s2.77.15 6.52 2.78z" fill="#ff9a9f"/><path d="m101.058 49.037-3.49 12.63-3.51 12.73h-27.47v-57.11h20.95s2.77.15 6.52 2.78z" fill="#ff8086"/><path d="m248.148 238.027-24.12 122.18-25.35-10.73s-64.618-28.076-87.25-36.93c-9.893-3.87-17.37-12.11-17.37-22.74v-269.74c.24.16.48.34.73.53 1.88 1.42 3.97 3.47 6.05 6.41.08.1.15.2.22.3z" fill="#ff8086"/><path d="m248.148 238.027-24.12 122.18-25.35-10.73 22-111.45-123.11-176.36-3.51-5.03v-36.57c.24.16.48.34.73.53 1.88 1.42 3.97 3.47 6.05 6.41.08.1.15.2.22.3z" fill="#e5646e"/><path d="m491.958 167.697-182.31 108.08.6-16.7 3.29-91.4 18.83-73.15c2.26-.1 4.99.12 7.9 1.12.09.03.18.06.27.09l149.64 53.45c8.19 2.92 9.27 14.07 1.78 18.51z" fill="#b8daff"/><path d="m491.958 167.697-182.31 108.08.6-16.7 1.61-.96 152.63-90.42c7.49-4.44 6.41-15.59-1.78-18.51l-131.31-46.93-.933-.336 1.903-7.394c2.26-.1 4.99.12 7.9 1.12.09.03.18.06.27.09l149.64 53.45c8.19 2.92 9.27 14.07 1.78 18.51z" fill="#a4ccff"/><path d="m303.504 324.816 143.192-36.178c8.911-2.251 10.608-14.176 2.678-18.824l-65.202-38.216-77.954 34.994z" fill="#8bb3ea"/><path d="m449.375 269.814-65.203-38.216-15.523 6.968 53.255 31.248c7.93 4.648 6.233 16.572-2.678 18.824l-115.397 29.194-.325 6.984 143.192-36.178c8.912-2.252 10.608-14.176 2.679-18.824z" fill="#739ad6"/><path d="m332.368 94.527-.97 7.73-19.54 155.86-2.21 17.66-10.58 84.43h-75.04l-129.97-159.07 209.38-95.02 22.86-10.38s.05-.02.13-.05c.54-.21 2.69-.97 5.72-1.14.07-.01.15-.01.22-.02z" fill="#edf4ff"/><path d="m332.368 94.527-.97 7.73-19.54 155.86-2.21 17.66-10.58 84.43h-27.47l31.84-254.09 22.86-10.38s.05-.02.13-.05c.54-.21 2.69-.97 5.72-1.14.07-.01.15-.01.22-.02z" fill="#dbeaff"/><path d="m224.032 360.211 73.528 81.677c3.864 4.292 8.982 7.258 14.628 8.475l135.43 29.198c5.947 1.282 9.85-6.032 5.474-10.259l-149.588-144.486z" fill="#b3e59f"/><path d="m453.093 469.302-149.589-144.486-18.801 8.374 140.92 136.113c1.771 1.711 2.169 3.923 1.641 5.87l20.355 4.388c5.946 1.282 9.849-6.032 5.474-10.259z" fill="#95d6a4"/></g></svg>